<?xml version="1.0" encoding="UTF-8"?>
<svg id="OBJECTS" xmlns="http://www.w3.org/2000/svg" xmlns:xlink="http://www.w3.org/1999/xlink" viewBox="0 0 500 500">
  <defs>
    <style>
      .cls-1 {
        fill: url(#linear-gradient-2);
      }

      .cls-2, .cls-3 {
        fill: #fff;
      }

      .cls-4 {
        fill: #0c264c;
      }

      .cls-5 {
        letter-spacing: -.02em;
      }

      .cls-6 {
        fill: #4392e3;
      }

      .cls-7 {
        fill: url(#linear-gradient);
      }

      .cls-3 {
        font-family: MongolianBaiti, 'Mongolian Baiti';
        font-size: 9.59px;
      }
    </style>
    <linearGradient id="linear-gradient" x1="274.7" y1="207.02" x2="274.7" y2="28.09" gradientUnits="userSpaceOnUse">
      <stop offset="0" stop-color="#ff5e57"/>
      <stop offset=".62" stop-color="#ffbd4a"/>
    </linearGradient>
    <linearGradient id="linear-gradient-2" x1="109.02" y1="277.34" x2="440.38" y2="277.34" gradientUnits="userSpaceOnUse">
      <stop offset="0" stop-color="#3784de"/>
      <stop offset="1" stop-color="#7bd2fd"/>
    </linearGradient>
  </defs>
  <g>
    <circle class="cls-2" cx="274.7" cy="194.25" r="166.16"/>
    <g>
      <path class="cls-7" d="M274.7,194.25c68.72,0,129.38,5.06,165.68,12.77,.32-4.21,.48-8.47,.48-12.77,0-91.77-74.39-166.16-166.16-166.16S108.53,102.48,108.53,194.25c0,4.3,.16,8.55,.48,12.77,36.3-7.71,96.96-12.77,165.68-12.77Z"/>
      <path class="cls-1" d="M439.6,214.81c.32-2.58,.58-5.18,.78-7.79-36.3-7.71-96.96-12.77-165.68-12.77s-129.38,5.06-165.68,12.77l180.37,1.08-169.52,11.75,33.57,6.71-40.35,6.41c2.05,8.57,4.75,16.88,8.07,24.88l70.89-2.75-29.37,5.87,146.86,2.52-182.02,7.91c5.92,11.26,13.08,21.76,21.32,31.32l75.1,2.73-64.38,8.58c3.85,3.7,7.87,7.21,12.06,10.53l43.93,2.7-33.85,4.69c26.54,17.96,58.55,28.46,93.01,28.46s63.22-9.46,88.94-25.78l-59.98-5.69h68.35c5.46-3.95,10.67-8.22,15.6-12.79l-83.96-8.19,98.22-6.77c.94-1.11,1.86-2.24,2.77-3.38l-117.77-9.99,128.64-5.33c1.29-2.06,2.54-4.14,3.74-6.25l-41.75-6.88,35.25-2.52-26.02-2.52,30.21-5.87-135.95-15.95h152.75c1.58-5.2,2.91-10.51,3.97-15.91l-52.66-11.78h54.55Z"/>
    </g>
    <path class="cls-6" d="M274.7,194.25c-18.63,0-36.66,.37-53.78,1.07l83.99,5.64-42.38,1.68,87.7,3.78-99.87,9.23,76.37,5.45-69.65,4.2,147.28,5.04-80.56-15.53,38.6-1.68-13.01-2.94,56.23-2.94-45.74-6.29,31.51-1.24c-32.91-3.44-73.18-5.47-116.69-5.47Z"/>
    <polygon class="cls-6" points="232.32 241.67 361.13 258.45 234.83 246.28 337.64 262.23 315.4 265.59 368.27 269.78 235.67 277.75 304.07 270.2 290.22 270.2 314.98 262.23 249.52 254.68 263.79 253.84 181.96 242.51 226.86 245.03 207.98 240.41 232.32 241.67"/>
    <path class="cls-4" d="M383.01,138.48l4.61-4.61c1.36-1.36,1.36-3.56,0-4.92-1.36-1.36-3.56-1.36-4.92,0l-.38,.38-1.48-19.57,4.63-4.63c1.36-1.36,1.36-3.56,0-4.92-1.36-1.36-3.56-1.36-4.92,0l-.4,.4-1.75-23.17c12.7-11.98,22.76-21.52,25.04-23.79,9-9,6.16-22.64,4.78-24.03s-15.03-4.22-24.03,4.78c-2.28,2.28-11.81,12.34-23.79,25.04l-23.17-1.75,.4-.4c1.36-1.36,1.36-3.56,0-4.92s-3.56-1.36-4.92,0l-4.63,4.63-19.57-1.48,.38-.38c1.36-1.36,1.36-3.56,0-4.92-1.36-1.36-3.56-1.36-4.92,0l-4.61,4.61-30.26-2.29-6.79,6.79,55.25,15.93,15.85,12.83c-14.18,16.95-36.48,42.56-36.48,42.56l-29.98-3.53-4.57,4.57,21.6,13.29c-2.35,2.63-1.52,4.85-1.52,4.85-4.15,4.15-2.35,7.89-2.35,7.89,0,0,3.74,1.8,7.89-2.35,0,0,2.22,.83,4.85-1.52l13.29,21.6,4.57-4.57-3.53-29.98s25.62-22.3,42.56-36.48l12.83,15.85,15.93,55.25,6.79-6.79-2.29-30.26Z"/>
    <path class="cls-4" d="M232.88,189.48c-9.17,5.87-18.51,11.47-28.03,16.7-9.51,5.22-19.21,10.09-29.06,14.29-4.92,2.1-9.89,4.02-14.84,5.68-4.95,1.65-9.92,3.03-14.69,3.92-2.38,.44-4.7,.74-6.85,.85-2.14,.11-4.12,.03-5.61-.25-.73-.14-1.32-.34-1.76-.52-.39-.2-.61-.39-.66-.51-.06-.12,.07-.19,.16-.22,.09-.03,.18-.04,.21-.21,.05-.27-.04-1.19,.11-2.53,.06-.53,.15-1.12,.27-1.73-8.6-11.41-15.31-24.11-19.74-37.7-1.75,3.89-3.39,7.89-4.86,12.03-1.93,5.57-3.62,11.36-4.47,17.87-.41,3.26-.61,6.73-.28,10.53,.19,1.91,.48,3.89,1.08,6,.55,2.07,1.41,4.28,2.64,6.45,2.36,4.38,6.76,8.52,11.6,10.77,2.4,1.14,4.82,1.89,7.14,2.39,2.3,.46,4.49,.68,6.57,.74,4.13,.1,7.8-.35,11.23-.99,3.42-.65,6.59-1.51,9.63-2.49,6.05-1.97,11.59-4.35,16.91-6.92,5.3-2.58,10.37-5.36,15.29-8.27,9.83-5.82,19.09-12.13,28.02-18.71,8.93-6.59,17.53-13.46,25.87-20.54,16.67-14.17,32.34-29.16,47.18-44.72-17.03,13.55-34.7,26.35-53.04,38.09Z"/>
    <text class="cls-3" transform="translate(291.01 149.43) rotate(-44.67)"><tspan x="0" y="0">&quot;Tu</tspan><tspan class="cls-5" x="14.57" y="0"> </tspan><tspan x="16.79" y="0">Viaje,</tspan><tspan class="cls-5" x="39.95" y="0"> </tspan><tspan x="42.18" y="0">Tu Historia, Nuestra Pasión.&quot;</tspan></text>
  </g>
  <path class="cls-4" d="M356.45,196.8c-12.97-4.5-40.35-13.4-50.29-11.98-13.22,1.89-18.88,3.15-30.21,1.26-11.33-1.89-16.99-3.15-25.18-4.41-8.18-1.26-6.92-5.66-18.25-5.66s-25.18,.63-25.18,.63l-23.29,3.15s-3.15-4.41-8.18-5.04c-5.04-.63-8.18-5.66-15.11-6.29s-10.7-.63-13.85,.63c-3.15,1.26-8.81,1.89-12.59,1.89s-5.66-1.89-8.81-1.89-3.78-1.26-8.18-1.26c-1.45,0-4,.14-6.76,.32-1.34,8.51-2.05,17.23-2.05,26.11,0,4.3,.16,8.55,.48,12.77,36.3-7.71,96.96-12.77,165.68-12.77,29.12,0,56.77,.91,81.76,2.54Z"/>
</svg>